<svg width="191" height="33" viewBox="0 0 191 33" fill="none" xmlns="http://www.w3.org/2000/svg">
<path fill-rule="evenodd" clip-rule="evenodd" d="M32.0035 7.19649L30.6072 11.361C30.3191 11.1661 30.0146 10.9957 29.6696 10.8414C29.3287 10.6872 28.9471 10.5492 28.6184 10.4558C28.2896 10.3584 28.0176 10.3056 27.7498 10.2772C27.4819 10.2488 27.218 10.2488 26.9623 10.2732C26.7066 10.2975 26.459 10.3462 26.2358 10.4152C26.0085 10.4842 25.8055 10.5695 25.6351 10.6669C25.4646 10.7643 25.3225 10.8658 25.2089 10.9794C24.8963 11.2879 24.7299 11.71 24.7867 12.0834C24.8314 12.327 24.9734 12.5421 25.2413 12.7938C25.3875 12.9277 25.5742 13.0698 25.8826 13.2484C26.3291 13.5081 27.0232 13.8085 27.6442 14.0845C28.5494 14.4863 29.4626 14.8882 30.0634 15.2616C30.6641 15.631 30.9685 15.9313 31.2364 16.2641C31.5002 16.597 31.7275 16.9582 31.8858 17.3398C32.0441 17.7172 32.1334 18.111 32.1618 18.5777C32.1943 19.0405 32.1659 19.5722 32.0725 20.1283C31.9792 20.6843 31.8168 21.2648 31.5976 21.8005C31.3784 22.3363 31.1065 22.8234 30.7899 23.2658C30.4692 23.7082 30.1039 24.1101 29.6575 24.4835C29.2069 24.8569 28.6752 25.2019 27.9974 25.5429C27.3236 25.8838 26.5077 26.2207 25.6716 26.4967L25.3469 28.652C26.9786 28.6804 28.6143 28.3679 30.1445 27.7225C31.6747 27.0772 33.0994 26.099 34.2684 24.8772C35.4374 23.6595 36.3466 22.2024 36.9311 20.6275C37.5156 19.0526 37.7713 17.3601 37.6779 15.6878C37.5886 14.0155 37.1503 12.3554 36.3993 10.8495C35.6484 9.34366 34.5769 7.98392 33.2861 6.89207C31.9954 5.80427 30.4814 4.98031 28.87 4.48918L28.6265 6.0884C28.9918 6.14522 29.3571 6.21423 29.6899 6.28729C30.0228 6.35629 30.3231 6.42935 30.7087 6.57547C31.0903 6.70942 31.557 6.93672 32.0035 7.19649ZM18.1341 25.141L19.3559 20.25C19.7821 20.6194 20.2326 20.9563 20.6669 21.2363C21.1012 21.5164 21.5152 21.7356 21.9008 21.898C22.2864 22.0603 22.6396 22.1699 22.9846 22.2389C23.3336 22.3079 23.6746 22.3363 23.9871 22.3323C24.3037 22.3282 24.5919 22.2836 24.8639 22.2105C25.1358 22.1374 25.3875 22.0278 25.6229 21.8939C25.8542 21.7599 26.0653 21.6057 26.2317 21.4393C26.5524 21.1308 26.731 20.7574 26.7959 20.4043C26.8487 20.0755 26.7918 19.8117 26.5686 19.5275C26.455 19.3855 26.3007 19.2434 26.0572 19.081C25.8136 18.9228 25.4849 18.7442 25.0343 18.5534C24.5878 18.3626 24.0196 18.1516 23.5163 17.9486C23.013 17.7457 22.5706 17.5508 22.1687 17.3601C21.7669 17.1693 21.4056 16.9785 21.1175 16.7756C20.8293 16.5726 20.6101 16.3534 20.4112 16.114C20.2123 15.8745 20.0337 15.6107 19.8917 15.3387C19.7496 15.0627 19.6441 14.7786 19.5669 14.462C19.4898 14.1494 19.4452 13.8044 19.4371 13.431C19.4168 12.7004 19.5507 11.7993 19.8348 10.9632C19.9728 10.5573 20.1433 10.1717 20.3503 9.81044C20.5573 9.44514 20.8009 9.10013 21.0809 8.7673C21.361 8.43446 21.6857 8.11381 22.0307 7.82562C22.3757 7.53744 22.7451 7.27767 23.1429 7.05037C23.5406 6.82307 23.9668 6.62824 24.4214 6.46182C24.872 6.29946 25.3509 6.16552 25.8339 6.07216L26.1465 3.99805H0.0069319C-0.0174217 4.46888 0.0231678 4.94784 0.116523 5.36591C0.209879 5.78804 0.356 6.14928 0.54677 6.46182C0.73754 6.77436 0.9689 7.03413 1.23273 7.24925C1.50062 7.46032 1.80098 7.62268 2.15817 7.73227C2.51535 7.84186 2.92937 7.89057 3.33932 7.89057L16.6486 7.89462C16.3685 8.14222 16.129 8.41011 15.918 8.69018H2.70206C2.67771 9.16101 2.7183 9.63591 2.81166 10.058C2.90501 10.4761 3.05113 10.8414 3.2419 11.1539C3.43267 11.4665 3.66403 11.7263 3.92786 11.9414C4.19169 12.1524 4.49206 12.3148 4.84924 12.4285C5.20643 12.538 5.62044 12.5868 6.03445 12.5868L13.8235 12.6111C13.7221 12.9115 13.645 13.2281 13.5841 13.5568H6.17245C6.15216 14.0114 6.19681 14.466 6.29016 14.876C6.38352 15.2859 6.5337 15.6472 6.72447 15.9557C6.91524 16.2641 7.14254 16.5199 7.41043 16.7309C7.67426 16.942 7.97462 17.1003 8.32775 17.2099C8.68494 17.3195 9.09489 17.3641 9.5089 17.3682L13.2999 17.3804C13.3284 17.7578 13.3771 18.1191 13.4623 18.456H9.56167C9.54137 18.8781 9.56167 19.3084 9.62255 19.6858C9.68343 20.0633 9.78085 20.3921 9.91074 20.6843C10.0406 20.9766 10.1989 21.2282 10.3735 21.4352C10.548 21.6422 10.7347 21.8046 10.9661 21.9385C11.1934 22.0725 11.4612 22.174 11.79 22.247C12.1188 22.3241 12.5044 22.3769 12.8941 22.3769L14.8951 22.385C15.8774 23.7813 16.8596 25.1816 18.1098 26.1517C19.3559 27.1218 20.8699 27.6657 22.3838 28.2096L22.6355 26.6347C21.7669 26.4805 20.9023 26.3303 20.1514 26.0787C19.3965 25.827 18.7633 25.4861 18.1341 25.141Z" fill="white"/>
<path fill-rule="evenodd" clip-rule="evenodd" d="M40.856 32.6338L46.6318 32.6298L47.9185 24.7595C48.4218 25.1532 48.986 25.4698 49.5624 25.689C50.1387 25.9082 50.7232 26.03 51.328 26.0543C51.9328 26.0787 52.5498 26.0056 53.1951 25.827C54.4818 25.4779 55.9146 24.6337 57.3149 23.2739C58.0131 22.5961 58.695 21.7965 59.2348 21.0172C59.7747 20.2379 60.1724 19.4788 60.485 18.6224C60.7975 17.7619 61.0289 16.804 61.1628 15.8177C61.2968 14.8354 61.3292 13.8288 61.2724 12.9358C61.2156 12.0429 61.0654 11.2554 60.8381 10.5614C60.6108 9.86321 60.2983 9.25437 59.9411 8.74295C59.5839 8.23152 59.1739 7.81345 58.7274 7.48468C58.281 7.15184 57.7939 6.90831 57.2743 6.75001C56.7548 6.59171 56.1987 6.52271 55.598 6.55518C54.9973 6.58359 54.3519 6.71348 53.7431 6.92454C53.1342 7.13561 52.566 7.43191 51.9653 7.87839C51.3645 8.32488 50.7354 8.9256 50.1874 9.59127L50.2808 6.74595H45.613L40.856 32.6338ZM95.7815 32.6338L101.557 32.6298L102.844 24.7595C103.347 25.1532 103.912 25.4698 104.488 25.689C105.064 25.9082 105.649 26.03 106.254 26.0543C106.858 26.0787 107.475 26.0056 108.121 25.827C109.407 25.4779 110.84 24.6337 112.24 23.2739C112.939 22.5961 113.62 21.7965 114.16 21.0172C114.7 20.2379 115.098 19.4788 115.41 18.6224C115.723 17.7619 115.954 16.804 116.088 15.8217C116.222 14.8395 116.255 13.8329 116.198 12.9399C116.141 12.0469 115.991 11.2595 115.764 10.5654C115.536 9.86727 115.224 9.25843 114.867 8.74701C114.509 8.23558 114.099 7.81751 113.653 7.48874C113.206 7.1559 112.719 6.91237 112.2 6.75407C111.68 6.59577 111.124 6.52677 110.524 6.55924C109.923 6.58765 109.277 6.71754 108.669 6.9286C108.06 7.13967 107.492 7.43597 106.891 7.88245C106.29 8.32894 105.661 8.92966 105.113 9.59532L105.206 6.75001H100.539L95.7815 32.6338ZM66.2527 8.41823C65.3476 9.14478 64.5196 10.0377 63.8295 11.0444C63.1395 12.051 62.5916 13.1712 62.2222 14.3159C61.8528 15.4605 61.658 16.6254 61.6458 17.7335C61.6296 18.8456 61.7919 19.901 62.1045 20.8589C62.413 21.8168 62.8716 22.6813 63.4399 23.4119C64.0081 24.1425 64.69 24.7433 65.4531 25.1938C66.2162 25.6484 67.0604 25.9569 67.9615 26.099C68.8626 26.2451 69.8246 26.2207 70.8109 26.0259C71.7932 25.827 72.7998 25.4536 73.7617 24.8975C74.7237 24.3414 75.6451 23.6027 76.4609 22.7219C77.2727 21.8411 77.979 20.8183 78.5148 19.7224C79.0546 18.6265 79.428 17.4575 79.6188 16.3129C79.8096 15.1682 79.8217 14.048 79.6675 13.0008C79.5133 11.9536 79.1967 10.9835 78.7461 10.1311C78.2996 9.27873 77.7233 8.54406 77.0495 7.9474C76.3757 7.35073 75.6045 6.89613 74.7684 6.59171C73.9322 6.28729 73.0271 6.14117 72.0732 6.16552C71.1194 6.18988 70.1209 6.38065 69.1305 6.75813C68.1361 7.13561 67.1579 7.69168 66.2527 8.41823ZM91.4141 16.4022C91.2639 16.9095 91.0812 17.4047 90.8702 17.8634C90.6632 18.318 90.4318 18.732 90.1923 19.0973C89.9528 19.4626 89.6971 19.7792 89.4455 20.0471C89.1938 20.315 88.9422 20.5301 88.7027 20.6965C88.4632 20.8629 88.2318 20.9847 88.0208 21.0659C87.8057 21.1471 87.6108 21.1917 87.4282 21.1998C87.2455 21.212 87.0832 21.1917 86.9289 21.1471C86.7788 21.1024 86.6367 21.0293 86.5109 20.9319C86.385 20.8345 86.2714 20.7087 86.1699 20.5463C86.0684 20.384 85.9791 20.1891 85.9142 19.9537C85.7884 19.4788 85.7275 18.8822 85.8087 18.3504L87.8178 6.73783L82.3017 6.72566L80.0693 20.2703C79.9882 20.7533 80.0206 21.2485 80.0977 21.7721C80.1749 22.2998 80.321 22.8599 80.5239 23.3389C80.7269 23.8178 80.9907 24.2116 81.2992 24.5484C81.6077 24.8853 81.9649 25.1654 82.3667 25.3846C82.7685 25.6038 83.215 25.758 83.698 25.8432C84.181 25.9285 84.7046 25.9407 85.2526 25.8717C86.3444 25.7377 87.55 25.2669 88.7108 24.4104C89.2872 23.9843 89.8554 23.4647 90.3587 22.8883L90.0503 25.7012L95.3025 25.6971L98.5456 6.71754L93.0904 6.72566L91.4141 16.4022ZM128.561 6.5633C127.457 6.59983 126.386 6.76625 125.383 7.04225C124.381 7.31826 123.443 7.70792 122.587 8.19905C121.73 8.69018 120.947 9.27873 120.245 9.96469C119.542 10.6506 118.917 11.43 118.374 12.3351C117.83 13.2362 117.367 14.2631 117.026 15.29C116.685 16.3169 116.462 17.3438 116.381 18.2733C116.295 19.2028 116.348 20.0268 116.502 20.7777C116.657 21.5286 116.912 22.2024 117.249 22.7909C117.59 23.3795 118.012 23.8868 118.503 24.3049C118.995 24.723 119.559 25.0518 120.163 25.2791C121.365 25.7296 122.753 25.7661 124.068 25.3237C124.722 25.1045 125.355 24.7757 125.943 24.3333C126.532 23.8909 127.072 23.3389 127.518 22.7179L127.579 25.6444H133.03C132.831 23.6839 132.633 21.7194 132.986 18.7523C133.339 15.7852 134.244 11.8115 135.149 7.84186C133.087 6.9286 130.782 6.48618 128.561 6.5633ZM146.952 7.69168C146.291 7.46032 145.333 7.18432 144.334 7.1072C143.336 7.03414 142.297 7.15996 141.343 7.39944C140.389 7.63892 139.525 7.99204 138.757 8.48318C137.99 8.97431 137.321 9.61156 136.752 10.3503C136.188 11.089 135.725 11.9333 135.401 12.9074C135.076 13.8816 134.889 14.9815 134.845 16.1221C134.8 17.2627 134.897 18.4479 135.133 19.4788C135.364 20.5098 135.734 21.3906 136.225 22.1699C136.716 22.9492 137.333 23.6352 138.027 24.1953C138.721 24.7554 139.492 25.1938 140.373 25.4861C141.254 25.7783 142.244 25.9204 143.324 25.9163C144.403 25.9122 145.572 25.7702 146.616 25.4861C147.659 25.206 148.576 24.7879 149.408 24.24L148.174 21.5286C147.63 21.9548 147.038 22.3241 146.478 22.5961C145.357 23.1441 144.282 23.278 143.157 23.1684C142.593 23.1116 142.041 22.9979 141.55 22.8153C141.063 22.6326 140.641 22.3891 140.259 22.0887C139.878 21.7884 139.537 21.4312 139.249 21.0172C138.96 20.6032 138.721 20.1323 138.538 19.5762C138.356 19.0202 138.23 18.3789 138.169 17.6604C138.108 16.942 138.116 16.1424 138.193 15.4199C138.27 14.6974 138.412 14.0439 138.615 13.4716C138.818 12.8993 139.074 12.4041 139.378 11.9739C139.683 11.5396 140.036 11.1702 140.418 10.8617C140.799 10.5573 141.213 10.3178 141.676 10.1433C142.139 9.96875 142.65 9.86321 143.19 9.82262C143.73 9.78203 144.302 9.81045 144.899 9.9241C145.491 10.0377 146.108 10.2407 146.595 10.4558C147.082 10.6709 147.44 10.9023 147.756 11.1824L149.311 8.90936C148.994 8.69424 148.669 8.49129 148.32 8.30052C147.983 8.10975 147.618 7.92304 146.952 7.69168ZM160.964 7.39944C160.237 7.22491 159.491 7.12343 158.861 7.10314C158.232 7.08284 157.725 7.14779 157.246 7.27361C156.771 7.4035 156.325 7.59833 155.915 7.86216C155.505 8.12599 155.127 8.45476 154.774 8.87283C154.421 9.2909 154.088 9.79421 153.824 10.33V7.43191H150.849V25.5713H153.824V15.1764C153.824 14.6487 153.877 14.1251 153.983 13.638C154.088 13.151 154.242 12.7045 154.449 12.2905C154.652 11.8764 154.908 11.4908 155.184 11.1621C155.752 10.4842 156.357 10.0865 156.946 9.92004C157.558 9.7455 158.192 9.7658 158.821 10.0134C159.133 10.1352 159.45 10.3138 159.73 10.5329L160.964 7.39944ZM175.414 14.4904C175.385 13.8978 175.304 13.0738 175.117 12.3392C174.935 11.6045 174.647 10.9591 174.285 10.3746C173.92 9.79015 173.478 9.26655 172.974 8.82413C172.471 8.3817 171.907 8.02046 171.265 7.74445C170.624 7.46844 169.902 7.28173 169.143 7.18432C168.384 7.0869 167.592 7.07472 166.87 7.16402C166.147 7.25738 165.494 7.44815 164.869 7.74445C164.244 8.04075 163.647 8.43853 163.091 8.93778C162.535 9.43703 162.015 10.0418 161.577 10.7034C161.143 11.3691 160.789 12.0916 160.526 12.9115C160.262 13.7314 160.091 14.6446 160.018 15.6066C159.945 16.5686 159.969 17.5793 160.091 18.4925C160.213 19.4098 160.428 20.2297 160.737 20.9725C161.045 21.7194 161.443 22.385 161.914 22.9858C162.385 23.5865 162.933 24.1141 163.513 24.5403C164.093 24.9665 164.706 25.2912 165.372 25.5185C166.038 25.7458 166.748 25.8757 167.552 25.9041C168.355 25.9325 169.248 25.8635 170.097 25.6931C170.941 25.5226 171.74 25.2506 172.378 24.9503C173.015 24.6499 173.49 24.313 173.9 23.9112L172.65 21.5935C172.252 21.9791 171.793 22.3039 171.282 22.5596C170.77 22.8112 170.202 22.9939 169.605 23.0994C169.005 23.2009 168.371 23.2252 167.799 23.1725C167.227 23.1197 166.703 22.9858 166.232 22.7787C165.762 22.5717 165.339 22.2917 164.962 21.9385C164.584 21.5854 164.248 21.1633 163.972 20.6681C163.696 20.1729 163.48 19.6128 163.334 18.9552C163.188 18.3017 163.111 17.5549 163.115 16.8121H175.199C175.276 16.4752 175.337 16.1343 175.377 15.7852C175.41 15.4402 175.442 15.083 175.414 14.4904ZM191 25.5591V0H188.029V8.41823C187.692 8.07728 187.29 7.80533 186.787 7.59021C186.284 7.37509 185.679 7.22491 185.033 7.15184C184.384 7.07878 183.694 7.0869 183.061 7.18432C182.428 7.28173 181.855 7.4725 181.295 7.76474C180.735 8.05699 180.183 8.4507 179.647 8.96213C179.111 9.47356 178.588 10.1027 178.149 10.7927C177.707 11.4787 177.35 12.2215 177.078 13.0292C176.806 13.8369 176.623 14.7015 176.534 15.6431C176.445 16.5808 176.453 17.5914 176.55 18.5209C176.648 19.4504 176.834 20.2987 177.098 21.0456C177.358 21.7965 177.695 22.4459 178.097 23.0223C178.499 23.5987 178.965 24.102 179.46 24.5119C179.956 24.9219 180.483 25.2344 181.06 25.4576C181.636 25.6849 182.269 25.8229 182.951 25.8757C183.633 25.9285 184.368 25.892 185.025 25.7783C185.683 25.6606 186.259 25.4658 186.754 25.2019C187.254 24.9381 187.676 24.6134 188.033 24.2237V25.5591H191ZM50.5122 21.3946C51.2428 21.5692 51.9409 21.4271 52.639 20.9198C52.8785 20.7412 53.1261 20.5139 53.3818 20.2176C53.6335 19.9253 53.8933 19.5641 54.1571 19.1176C54.4169 18.6711 54.6847 18.1313 54.9039 17.5955C55.1272 17.0597 55.3058 16.5239 55.4275 16.0409C55.5493 15.5579 55.6142 15.1236 55.6386 14.7299C55.663 14.3362 55.6467 13.9871 55.598 13.6746C55.5493 13.362 55.4722 13.0941 55.3666 12.8587C55.2652 12.6233 55.1393 12.4203 54.9932 12.2539C54.8512 12.0835 54.6888 11.9495 54.5143 11.844C54.3397 11.7384 54.149 11.6613 53.946 11.6167C53.2925 11.4787 52.5822 11.6532 51.876 12.189C51.6324 12.3757 51.3889 12.6111 51.1657 12.8749C50.9424 13.1428 50.7354 13.4391 50.5609 13.772C50.3863 14.1007 50.2077 14.4579 50.1306 14.8354L48.9373 20.5342C48.9738 20.5666 49.0144 20.5991 49.0753 20.6478C49.1402 20.6965 49.2295 20.7615 49.3513 20.8467C49.4731 20.9319 49.6314 21.0334 49.8303 21.1349C50.0291 21.2323 50.2727 21.3338 50.5122 21.3946ZM105.438 21.3946C106.168 21.5692 106.866 21.4271 107.565 20.9198C107.804 20.7412 108.052 20.5139 108.307 20.2176C108.559 19.9253 108.819 19.5641 109.083 19.1176C109.342 18.6711 109.61 18.1313 109.829 17.5955C110.053 17.0597 110.231 16.5239 110.353 16.0409C110.475 15.5579 110.54 15.1236 110.564 14.7299C110.588 14.3362 110.572 13.9871 110.524 13.6746C110.475 13.362 110.398 13.0941 110.292 12.8587C110.191 12.6233 110.065 12.4203 109.919 12.2539C109.777 12.0835 109.614 11.9495 109.44 11.844C109.265 11.7384 109.074 11.6613 108.872 11.6167C108.218 11.4787 107.508 11.6532 106.801 12.189C106.558 12.3757 106.314 12.6111 106.091 12.8749C105.868 13.1428 105.661 13.4391 105.486 13.772C105.312 14.1007 105.133 14.4579 105.056 14.8354L103.863 20.5342C103.899 20.5666 103.94 20.5991 104.001 20.6478C104.066 20.6965 104.155 20.7615 104.277 20.8467C104.399 20.9319 104.557 21.0334 104.756 21.1349C104.955 21.2323 105.198 21.3338 105.438 21.3946ZM69.9301 11.4137C69.65 11.6126 69.3619 11.8724 69.0777 12.2012C68.7936 12.5299 68.5176 12.9196 68.27 13.3661C67.7667 14.2672 67.3933 15.3996 67.235 16.4752C67.1579 17.0191 67.1335 17.5427 67.1538 18.0298C67.1782 18.5169 67.2472 18.9633 67.3527 19.3571C67.4582 19.7508 67.5962 20.0877 67.7545 20.3677C67.9128 20.6478 68.0914 20.8751 68.2862 21.0537C68.477 21.2323 68.68 21.3622 68.8951 21.4515C69.1102 21.5408 69.3334 21.5854 69.5689 21.5935C69.8043 21.5976 70.0559 21.5611 70.3198 21.4758C70.8434 21.3054 71.4197 20.9198 71.9839 20.2703C72.2681 19.9415 72.5441 19.5519 72.7917 19.1054C73.295 18.2043 73.6684 17.0719 73.8267 16.0003C73.9038 15.4564 73.9282 14.9328 73.9079 14.4458C73.8835 13.9587 73.8145 13.5122 73.709 13.1185C73.6034 12.7248 73.4654 12.3879 73.3071 12.1078C73.1488 11.8277 72.9703 11.6004 72.7754 11.4218C72.5847 11.2433 72.3817 11.1134 72.1666 11.0241C71.9515 10.9348 71.7282 10.8861 71.4928 10.882C71.2574 10.8779 71.0057 10.9145 70.7419 10.9997C70.4821 11.0768 70.2102 11.2148 69.9301 11.4137ZM125.201 12.3716C124.787 12.6233 124.405 12.9115 124.068 13.224C123.731 13.5366 123.435 13.8694 123.179 14.2266C122.924 14.5838 122.704 14.9653 122.53 15.359C122.185 16.1343 121.998 16.9988 121.998 17.8268C121.998 18.2287 122.043 18.6143 122.116 18.9633C122.193 19.3084 122.303 19.6168 122.437 19.8766C122.57 20.1364 122.729 20.3515 122.887 20.5179C123.045 20.6843 123.204 20.8061 123.411 20.8873C123.817 21.0375 124.373 21.1186 124.852 21.0172C125.083 20.9644 125.31 20.8548 125.554 20.6965C125.797 20.5382 126.061 20.3353 126.325 20.0633C126.589 19.7873 126.857 19.4423 127.088 19.0689C127.319 18.6955 127.518 18.2936 127.681 17.8756L128.947 11.0971C128.533 11.154 128.123 11.2351 127.717 11.3366C127.311 11.4381 126.914 11.5639 126.491 11.7344C126.061 11.9089 125.615 12.12 125.201 12.3716ZM163.862 12.2255C163.472 12.8993 163.241 13.6867 163.184 14.4823H172.463C172.475 13.8816 172.382 13.2768 172.195 12.7329C172.012 12.189 171.732 11.71 171.391 11.3001C171.05 10.8901 170.64 10.5492 170.17 10.3016C169.24 9.81857 168.039 9.68462 166.926 9.90786C166.379 10.0215 165.859 10.2285 165.327 10.6101C164.796 10.9957 164.252 11.5558 163.862 12.2255ZM186.178 10.0175C185.565 9.78203 184.794 9.75768 184.043 9.88351C183.657 9.94845 183.28 10.0621 182.935 10.2163C182.586 10.3706 182.265 10.5735 181.957 10.8292C181.644 11.085 181.344 11.3975 181.068 11.7506C180.796 12.1037 180.552 12.5015 180.345 12.9399C180.138 13.3783 179.972 13.8531 179.846 14.3849C179.72 14.9166 179.643 15.497 179.611 16.1262C179.582 16.7553 179.603 17.425 179.667 18.0339C179.732 18.6427 179.842 19.1906 179.984 19.6655C180.126 20.1404 180.305 20.5463 180.512 20.9035C180.715 21.2566 180.946 21.5611 181.21 21.8249C181.474 22.0887 181.766 22.316 182.095 22.5068C182.424 22.6976 182.781 22.8518 183.203 22.9695C183.625 23.0832 184.112 23.1562 184.534 23.1887C184.956 23.2212 185.313 23.2131 185.675 23.14C186.036 23.0629 186.397 22.9208 186.738 22.7503C187.079 22.5799 187.396 22.3891 187.611 22.2105C187.83 22.036 187.948 21.8777 188.029 21.6991V11.637C187.883 11.4015 187.72 11.1824 187.55 10.9835C187.379 10.7846 187.197 10.6101 186.974 10.4477C186.746 10.2853 186.474 10.127 186.178 10.0175Z" fill="white"/>
</svg>
